<?xml version="1.0" encoding="UTF-8"?>
<svg xmlns="http://www.w3.org/2000/svg" version="1.1" viewBox="0 0 120 40">
  <defs>
    <style>
      .cls-1 {
        fill: var(--Grey-800);
      }

      .cls-2 {
        fill: #fe6100;
      }
    </style>
  </defs>
  <!-- Generator: Adobe Illustrator 28.6.0, SVG Export Plug-In . SVG Version: 1.2.0 Build 709)  -->
  <g>
    <g id="Camada_1">
      <path class="cls-1" d="M91.5,30.7h-.8v-.3h2v.3h-.8v2.3h-.3v-2.3h0ZM95.1,32.7v.3h-1.8v-2.6h1.7v.3h-1.4v.8h1.3v.3h-1.3v.9h1.4ZM97,30.3c.5,0,.9.2,1.1.7l-.3.2c-.2-.3-.4-.5-.8-.5-.6,0-1,.4-1,1s.4,1,1,1,.6-.2.8-.5l.3.2c-.2.4-.6.7-1.1.7-.7,0-1.3-.6-1.3-1.4,0-.8.5-1.4,1.3-1.4h0ZM101,30.4v2.6h-.3l-1.5-2.1v2.1h-.3v-2.6h.3l1.5,2.1v-2.1h.3ZM103.2,30.3c.7,0,1.3.6,1.3,1.4,0,.7-.5,1.4-1.3,1.4-.7,0-1.3-.6-1.3-1.4,0-.7.5-1.4,1.3-1.4ZM103.2,30.7c-.6,0-1,.5-1,1s.4,1,1,1,1-.5,1-1-.4-1-1-1ZM107,32.7v.3h-1.7v-2.6h.3v2.3h1.3ZM108.7,30.3c.7,0,1.3.6,1.3,1.4,0,.7-.5,1.4-1.3,1.4-.7,0-1.3-.6-1.3-1.4,0-.7.5-1.4,1.3-1.4ZM108.7,30.7c-.6,0-1,.5-1,1s.4,1,1,1,1-.5,1-1-.4-1-1-1ZM113.1,31.6v1c-.2.3-.6.4-1,.4-.8,0-1.3-.6-1.3-1.3,0-.8.5-1.4,1.3-1.4.4,0,.8.2,1,.5l-.2.2c-.2-.2-.4-.4-.7-.4-.6,0-1,.4-1,1.1s.4,1,1,1,.6,0,.7-.2v-.6h-.7v-.3h1ZM114,30.4h.3v2.6h-.3v-2.6ZM116.8,32.3h-1.2l-.3.7h-.3l1-2.6h.4l1,2.6h-.3l-.3-.7ZM116.7,32l-.5-1.3-.5,1.3h1ZM118.1,32.3c.1.3.4.5.8.5s.6-.2.6-.5-.1-.3-.4-.4h-.4c-.5-.2-.7-.5-.7-.8s.3-.7.9-.7.8.2.9.5l-.2.2c-.1-.2-.4-.3-.7-.3s-.6.2-.6.4.1.3.5.4h.4c.5.2.7.4.7.8s-.3.8-.9.8-.9-.2-1-.6c0,0,.3-.2.3-.2ZM60.7,9.9h-4.3v16.7h4.3V9.9h0ZM84.6,13.9l-1.9,6.3-2.3-6.3h-4.7l4.8,12.3-1.4,4.4h4.5l5.5-16.7s-4.5,0-4.5,0ZM68.3,13.9c-3.4,0-6.2,2.9-6.2,6.4s2.8,6.4,6.2,6.4h6.6v-12.8h-6.6ZM70.5,22.2h-2.2c-1,0-1.9-.9-1.9-2s.8-2,1.9-2h2.2v3.9ZM48.9,13.9h-6.5v16.8h4.3v-4h2.2c3.4,0,6.2-2.9,6.2-6.4s-2.8-6.4-6.2-6.4h0ZM48.9,22.2h-2.2v-3.9h2.2c1,0,1.9.9,1.9,2s-.9,2-1.9,2ZM99.5,15.8h-4.6v-1.4h8.9v-4.4h-13.2v10.3h8.4c.5,0,1,.5,1,1s-.4,1-1,1h-8.4v4.4h8.9c2.9,0,5.3-2.4,5.3-5.4,0-3-2.4-5.4-5.3-5.4ZM114.7,15.8h-4.6v-1.4h8.9v-4.4h-13.2v10.3h8.4c.5,0,1,.5,1,1s-.4,1-1,1h-8.4v4.4h8.9c2.9,0,5.3-2.4,5.3-5.4s-2.4-5.4-5.3-5.4ZM32.8,12.6c.9.6,1.7,1.3,2.3,2.2.6-2.9-1.2-6.1-4.4-6.7l-7.5-1.3,9.5,5.7h0ZM13.6,36.6c-.9.6-2,.9-3,1,2.2,2,5.7,2,7.7-.6l4.8-6.1s-9.5,5.7-9.5,5.7ZM3.1,7.3c0-1.1.3-2.2.7-3.2C1,4.9-.8,8.1.3,11.3l2.7,7.5V7.3Z"/>
      <path class="cls-2" d="M4.7,7.2v23.1c0,4.3,4.5,7,8.1,4.8l19.2-11.6c3.6-2.1,3.6-7.5,0-9.6L12.8,2.4C9.2.3,4.7,3,4.7,7.2ZM11.7,10.3l14.1,8.5-14.1,8.5s0-17,0-17Z"/>
    </g>
  </g>
</svg>